<svg width="7" height="7" viewBox="0 0 7 7" fill="none" xmlns="http://www.w3.org/2000/svg">
<g clip-path="url(#clip0_504_220)">
<path d="M6.41667 0H0.583333C0.428624 0 0.280251 0.0614581 0.170854 0.170854C0.0614581 0.280251 0 0.428624 0 0.583333V6.41667C0 6.57138 0.0614581 6.71975 0.170854 6.82915C0.280251 6.93854 0.428624 7 0.583333 7H6.41667C6.57138 7 6.71975 6.93854 6.82915 6.82915C6.93854 6.71975 7 6.57138 7 6.41667V0.583333C7 0.428624 6.93854 0.280251 6.82915 0.170854C6.71975 0.0614581 6.57138 0 6.41667 0V0ZM2.91667 5.10417L1.45833 3.65837L1.92208 3.20833L2.91667 4.18425L5.07762 2.04167L5.54167 2.50162L2.91667 5.10417Z" fill="#111111"/>
</g>
<defs>
<clipPath id="clip0_504_220">
<rect width="7" height="7" fill="white"/>
</clipPath>
</defs>
</svg>
