<svg width="7" height="7" viewBox="0 0 7 7" fill="none" xmlns="http://www.w3.org/2000/svg">
<g clip-path="url(#clip0_504_230)">
<path d="M5.00002 3.50002C4.99989 3.89798 4.84168 4.27959 4.56018 4.56089C4.27869 4.8422 3.89698 5.00016 3.49902 5.00002C3.10107 4.99989 2.71946 4.84168 2.43816 4.56018C2.15685 4.27869 1.99889 3.89698 1.99902 3.49902C1.99916 3.10107 2.15737 2.71946 2.43886 2.43816C2.57824 2.29887 2.74369 2.1884 2.92577 2.11305C3.10784 2.0377 3.30298 1.99896 3.50002 1.99902C3.69707 1.99909 3.89218 2.03797 4.0742 2.11343C4.25623 2.1889 4.4216 2.29948 4.56089 2.43886C4.70018 2.57824 4.81065 2.74369 4.886 2.92577C4.96134 3.10784 5.00009 3.30298 5.00002 3.50002V3.50002Z" fill="#111111"/>
<path d="M3.5 0C1.6 0 0 1.6 0 3.5C0 5.4 1.6 7 3.5 7C5.4 7 7 5.4 7 3.5C7 1.6 5.4 0 3.5 0ZM3.5 6C2.1 6 1 4.9 1 3.5C1 2.1 2.1 1 3.5 1C4.9 1 6 2.1 6 3.5C6 4.9 4.9 6 3.5 6Z" fill="#111111"/>
</g>
<defs>
<clipPath id="clip0_504_230">
<rect width="7" height="7" fill="white"/>
</clipPath>
</defs>
</svg>
